<?xml version="1.0" encoding="UTF-8"?>
<svg xmlns="http://www.w3.org/2000/svg" width="1254" height="1254" viewBox="0 0 1254 1254">
  <title>Monkey Chief Logo</title>
  <path d="M 785.0 57.0 L 679.0 39.0 L 621.0 48.0 L 493.0 20.0 L 364.0 33.0 L 295.0 61.0 L 235.0 103.0 L 191.0 151.0 L 152.0 222.0 L 136.0 289.0 L 138.0 353.0 L 160.0 416.0 L 205.0 484.0 L 168.0 542.0 L 152.0 602.0 L 166.0 689.0 L 163.0 776.0 L 182.0 836.0 L 167.0 937.0 L 189.0 1017.0 L 232.0 1073.0 L 239.0 1114.0 L 258.0 1150.0 L 297.0 1189.0 L 357.0 1221.0 L 445.0 1240.0 L 536.0 1235.0 L 620.0 1207.0 L 727.0 1145.0 L 746.0 1146.0 L 831.0 1077.0 L 853.0 1081.0 L 864.0 1067.0 L 893.0 1061.0 L 912.0 1032.0 L 931.0 1034.0 L 958.0 985.0 L 1008.0 990.0 L 1069.0 958.0 L 1127.0 898.0 L 1172.0 818.0 L 1188.0 760.0 L 1191.0 705.0 L 1178.0 643.0 L 1155.0 602.0 L 1172.0 531.0 L 1162.0 465.0 L 1175.0 407.0 L 1164.0 370.0 L 1130.0 335.0 L 1090.0 268.0 L 1031.0 210.0 L 964.0 169.0 L 957.0 155.0 L 851.0 102.0 L 825.0 76.0 Z
M 662.0 64.0 L 687.0 66.0 L 720.0 78.0 L 769.0 80.0 L 792.0 88.0 L 816.0 103.0 L 833.0 122.0 L 889.0 146.0 L 940.0 177.0 L 937.0 181.0 L 937.0 196.0 L 949.0 245.0 L 953.0 279.0 L 949.0 314.0 L 930.0 274.0 L 927.0 287.0 L 942.0 351.0 L 944.0 388.0 L 930.0 447.0 L 895.0 546.0 L 859.0 506.0 L 832.0 465.0 L 815.0 427.0 L 806.0 387.0 L 807.0 362.0 L 821.0 325.0 L 834.0 307.0 L 877.0 266.0 L 883.0 256.0 L 886.0 235.0 L 882.0 221.0 L 852.0 179.0 L 809.0 141.0 L 779.0 123.0 L 661.0 67.0 Z
M 444.0 41.0 L 632.0 76.0 L 780.0 149.0 L 841.0 200.0 L 863.0 248.0 L 805.0 313.0 L 786.0 386.0 L 809.0 465.0 L 872.0 553.0 L 829.0 522.0 L 787.0 451.0 L 807.0 516.0 L 699.0 444.0 L 611.0 414.0 L 384.0 413.0 L 286.0 439.0 L 247.0 474.0 L 411.0 430.0 L 621.0 435.0 L 965.0 623.0 L 972.0 608.0 L 909.0 569.0 L 963.0 396.0 L 959.0 192.0 L 1060.0 274.0 L 1147.0 409.0 L 1131.0 591.0 L 1028.0 581.0 L 958.0 667.0 L 939.0 873.0 L 962.0 941.0 L 955.0 831.0 L 979.0 824.0 L 965.0 720.0 L 1001.0 628.0 L 1048.0 596.0 L 1105.0 602.0 L 1147.0 643.0 L 1164.0 705.0 L 1141.0 821.0 L 1052.0 937.0 L 980.0 966.0 L 944.0 936.0 L 918.0 1005.0 L 916.0 890.0 L 913.0 967.0 L 879.0 1035.0 L 890.0 955.0 L 850.0 1049.0 L 854.0 1000.0 L 820.0 1057.0 L 815.0 1037.0 L 733.0 1122.0 L 767.0 1024.0 L 695.0 1135.0 L 714.0 1090.0 L 612.0 1183.0 L 491.0 1217.0 L 384.0 1205.0 L 304.0 1164.0 L 206.0 996.0 L 193.0 913.0 L 220.0 806.0 L 194.0 817.0 L 174.0 615.0 L 192.0 546.0 L 238.0 484.0 L 178.0 397.0 L 158.0 314.0 L 183.0 207.0 L 247.0 121.0 L 341.0 63.0 Z
M 344.0 1114.0 L 344.0 1117.0 L 346.0 1120.0 L 359.0 1126.0 L 368.0 1132.0 L 381.0 1144.0 L 385.0 1143.0 L 385.0 1139.0 L 380.0 1132.0 L 371.0 1125.0 L 372.0 1123.0 L 382.0 1128.0 L 397.0 1143.0 L 401.0 1145.0 L 405.0 1145.0 L 407.0 1143.0 L 407.0 1139.0 L 403.0 1132.0 L 394.0 1123.0 L 387.0 1118.0 L 374.0 1113.0 L 363.0 1112.0 L 362.0 1111.0 L 349.0 1111.0 Z
M 796.0 970.0 L 794.0 970.0 L 793.0 972.0 L 793.0 982.0 L 792.0 983.0 L 792.0 992.0 L 791.0 993.0 L 790.0 1004.0 L 783.0 1030.0 L 771.0 1062.0 L 764.0 1077.0 L 758.0 1086.0 L 756.0 1092.0 L 759.0 1092.0 L 785.0 1066.0 L 791.0 1056.0 L 791.0 1050.0 L 780.0 1063.0 L 778.0 1062.0 L 782.0 1055.0 L 783.0 1050.0 L 789.0 1037.0 L 796.0 1010.0 L 796.0 1005.0 L 798.0 998.0 L 798.0 976.0 Z
M 758.0 916.0 L 755.0 917.0 L 755.0 922.0 L 758.0 930.0 L 759.0 942.0 L 760.0 943.0 L 760.0 962.0 L 759.0 963.0 L 758.0 978.0 L 749.0 1009.0 L 738.0 1032.0 L 738.0 1036.0 L 743.0 1032.0 L 746.0 1027.0 L 748.0 1029.0 L 741.0 1047.0 L 727.0 1070.0 L 729.0 1073.0 L 739.0 1063.0 L 750.0 1043.0 L 757.0 1019.0 L 755.0 1013.0 L 759.0 1003.0 L 760.0 996.0 L 763.0 990.0 L 765.0 981.0 L 765.0 976.0 L 768.0 963.0 L 767.0 960.0 L 768.0 946.0 L 767.0 945.0 L 765.0 929.0 L 761.0 919.0 Z
M 762.0 875.0 L 761.0 878.0 L 770.0 900.0 L 777.0 931.0 L 778.0 955.0 L 777.0 956.0 L 777.0 968.0 L 775.0 975.0 L 775.0 984.0 L 777.0 985.0 L 781.0 979.0 L 784.0 965.0 L 784.0 956.0 L 785.0 955.0 L 784.0 928.0 L 783.0 927.0 L 782.0 916.0 L 776.0 897.0 L 770.0 886.0 L 770.0 884.0 L 765.0 877.0 Z
M 872.0 823.0 L 870.0 826.0 L 875.0 841.0 L 875.0 846.0 L 879.0 865.0 L 880.0 924.0 L 882.0 931.0 L 885.0 933.0 L 887.0 931.0 L 887.0 868.0 L 885.0 859.0 L 886.0 856.0 L 889.0 858.0 L 897.0 883.0 L 898.0 893.0 L 901.0 899.0 L 903.0 897.0 L 904.0 893.0 L 904.0 886.0 L 899.0 865.0 L 888.0 841.0 L 882.0 832.0 Z
M 867.0 771.0 L 867.0 779.0 L 868.0 780.0 L 867.0 785.0 L 868.0 787.0 L 867.0 818.0 L 869.0 819.0 L 872.0 817.0 L 874.0 812.0 L 875.0 792.0 L 872.0 778.0 L 869.0 772.0 Z
M 934.0 763.0 L 930.0 766.0 L 928.0 770.0 L 924.0 786.0 L 924.0 805.0 L 925.0 806.0 L 927.0 823.0 L 930.0 834.0 L 932.0 837.0 L 933.0 837.0 L 933.0 823.0 L 932.0 822.0 L 932.0 811.0 L 931.0 810.0 L 931.0 784.0 L 932.0 783.0 L 933.0 772.0 L 935.0 767.0 Z
M 526.0 750.0 L 525.0 752.0 L 526.0 755.0 L 538.0 767.0 L 548.0 774.0 L 569.0 783.0 L 577.0 784.0 L 582.0 786.0 L 591.0 786.0 L 592.0 784.0 L 591.0 782.0 L 567.0 775.0 L 544.0 762.0 L 531.0 750.0 Z
M 350.0 728.0 L 348.0 726.0 L 346.0 726.0 L 335.0 735.0 L 322.0 741.0 L 298.0 742.0 L 297.0 744.0 L 303.0 748.0 L 314.0 748.0 L 315.0 747.0 L 325.0 746.0 L 339.0 739.0 Z
M 253.0 730.0 L 256.0 733.0 L 261.0 734.0 L 266.0 732.0 L 268.0 730.0 L 268.0 727.0 L 264.0 725.0 L 258.0 725.0 Z
M 381.0 719.0 L 382.0 724.0 L 385.0 726.0 L 396.0 726.0 L 403.0 724.0 L 418.0 724.0 L 424.0 726.0 L 429.0 726.0 L 436.0 729.0 L 442.0 729.0 L 444.0 727.0 L 444.0 722.0 L 437.0 716.0 L 418.0 711.0 L 393.0 712.0 L 383.0 716.0 Z
M 1076.0 709.0 L 1074.0 709.0 L 1071.0 713.0 L 1075.0 729.0 L 1072.0 758.0 L 1067.0 772.0 L 1067.0 775.0 L 1059.0 792.0 L 1049.0 809.0 L 1049.0 811.0 L 1051.0 813.0 L 1055.0 811.0 L 1060.0 806.0 L 1070.0 791.0 L 1078.0 772.0 L 1083.0 756.0 L 1084.0 743.0 L 1085.0 742.0 L 1085.0 729.0 L 1081.0 714.0 Z
M 907.0 709.0 L 902.0 725.0 L 899.0 746.0 L 898.0 747.0 L 897.0 775.0 L 898.0 776.0 L 898.0 783.0 L 900.0 783.0 L 902.0 785.0 L 902.0 808.0 L 904.0 814.0 L 904.0 821.0 L 906.0 827.0 L 907.0 839.0 L 915.0 863.0 L 918.0 865.0 L 922.0 860.0 L 922.0 843.0 L 921.0 842.0 L 921.0 828.0 L 920.0 824.0 L 918.0 823.0 L 917.0 828.0 L 918.0 831.0 L 918.0 850.0 L 916.0 851.0 L 912.0 830.0 L 912.0 823.0 L 910.0 814.0 L 910.0 802.0 L 909.0 801.0 L 909.0 783.0 L 910.0 782.0 L 910.0 771.0 L 912.0 764.0 L 911.0 755.0 L 906.0 763.0 L 905.0 773.0 L 903.0 775.0 L 901.0 774.0 L 902.0 755.0 L 906.0 736.0 L 907.0 724.0 L 909.0 718.0 L 909.0 711.0 Z
M 683.0 724.0 L 686.0 731.0 L 691.0 735.0 L 700.0 738.0 L 711.0 738.0 L 715.0 735.0 L 715.0 733.0 L 712.0 730.0 L 701.0 727.0 L 699.0 725.0 L 701.0 723.0 L 708.0 721.0 L 720.0 721.0 L 723.0 723.0 L 734.0 725.0 L 739.0 721.0 L 739.0 717.0 L 734.0 711.0 L 721.0 706.0 L 704.0 706.0 L 694.0 709.0 L 689.0 712.0 L 685.0 716.0 Z
M 857.0 689.0 L 856.0 694.0 L 858.0 698.0 L 858.0 705.0 L 861.0 715.0 L 861.0 719.0 L 864.0 725.0 L 866.0 724.0 L 865.0 711.0 L 861.0 695.0 Z
M 384.0 697.0 L 389.0 700.0 L 398.0 700.0 L 410.0 697.0 L 423.0 696.0 L 426.0 693.0 L 423.0 690.0 L 416.0 687.0 L 408.0 685.0 L 394.0 685.0 L 388.0 687.0 L 384.0 691.0 Z
M 404.0 670.0 L 404.0 673.0 L 409.0 676.0 L 437.0 677.0 L 440.0 674.0 L 440.0 672.0 L 437.0 669.0 L 428.0 667.0 L 410.0 667.0 Z
M 804.0 662.0 L 805.0 667.0 L 812.0 677.0 L 832.0 700.0 L 834.0 700.0 L 834.0 697.0 L 824.0 681.0 L 812.0 668.0 L 808.0 662.0 Z
M 853.0 658.0 L 851.0 661.0 L 861.0 676.0 L 872.0 700.0 L 878.0 720.0 L 881.0 726.0 L 883.0 737.0 L 886.0 745.0 L 886.0 749.0 L 888.0 753.0 L 890.0 749.0 L 892.0 729.0 L 895.0 717.0 L 896.0 700.0 L 894.0 699.0 L 892.0 704.0 L 889.0 718.0 L 889.0 727.0 L 887.0 729.0 L 885.0 727.0 L 884.0 715.0 L 875.0 689.0 L 862.0 666.0 L 855.0 658.0 Z
M 875.0 651.0 L 874.0 656.0 L 880.0 670.0 L 886.0 697.0 L 887.0 697.0 L 889.0 687.0 L 886.0 671.0 L 881.0 659.0 Z
M 410.0 649.0 L 410.0 651.0 L 412.0 653.0 L 418.0 655.0 L 430.0 654.0 L 433.0 651.0 L 430.0 647.0 L 426.0 645.0 L 416.0 645.0 L 413.0 646.0 Z
M 1087.0 635.0 L 1066.0 635.0 L 1038.0 650.0 L 1021.0 670.0 L 1004.0 706.0 L 998.0 735.0 L 998.0 765.0 L 1001.0 784.0 L 1015.0 823.0 L 1016.0 840.0 L 992.0 892.0 L 991.0 911.0 L 999.0 927.0 L 989.0 925.0 L 989.0 930.0 L 996.0 936.0 L 1012.0 936.0 L 1035.0 924.0 L 1062.0 899.0 L 1072.0 882.0 L 1072.0 877.0 L 1067.0 875.0 L 1030.0 910.0 L 1013.0 918.0 L 1005.0 914.0 L 1004.0 905.0 L 1021.0 898.0 L 1034.0 882.0 L 1031.0 876.0 L 1017.0 891.0 L 1006.0 896.0 L 1026.0 856.0 L 1031.0 838.0 L 1029.0 814.0 L 1014.0 769.0 L 1013.0 745.0 L 1022.0 747.0 L 1032.0 758.0 L 1035.0 756.0 L 1032.0 746.0 L 1016.0 737.0 L 1014.0 731.0 L 1020.0 729.0 L 1028.0 732.0 L 1042.0 746.0 L 1048.0 763.0 L 1047.0 789.0 L 1052.0 784.0 L 1057.0 765.0 L 1056.0 750.0 L 1049.0 734.0 L 1039.0 724.0 L 1017.0 715.0 L 1035.0 678.0 L 1056.0 657.0 L 1073.0 650.0 L 1091.0 654.0 L 1105.0 670.0 L 1115.0 696.0 L 1118.0 725.0 L 1114.0 757.0 L 1103.0 787.0 L 1106.0 795.0 L 1111.0 796.0 L 1116.0 792.0 L 1124.0 772.0 L 1131.0 737.0 L 1127.0 683.0 L 1111.0 650.0 L 1098.0 639.0 Z
M 906.0 602.0 L 905.0 605.0 L 908.0 610.0 L 913.0 625.0 L 913.0 631.0 L 916.0 643.0 L 917.0 657.0 L 920.0 671.0 L 920.0 681.0 L 922.0 689.0 L 922.0 701.0 L 925.0 712.0 L 925.0 718.0 L 929.0 735.0 L 933.0 741.0 L 935.0 739.0 L 935.0 732.0 L 936.0 731.0 L 936.0 711.0 L 937.0 710.0 L 937.0 699.0 L 939.0 691.0 L 939.0 679.0 L 940.0 678.0 L 942.0 659.0 L 945.0 649.0 L 945.0 644.0 L 948.0 637.0 L 949.0 629.0 L 947.0 627.0 L 942.0 633.0 L 942.0 636.0 L 935.0 658.0 L 935.0 664.0 L 933.0 671.0 L 933.0 683.0 L 932.0 684.0 L 932.0 708.0 L 930.0 709.0 L 928.0 703.0 L 928.0 693.0 L 926.0 686.0 L 926.0 678.0 L 924.0 668.0 L 924.0 655.0 L 922.0 647.0 L 921.0 632.0 L 916.0 612.0 L 913.0 606.0 L 910.0 603.0 Z
M 332.0 597.0 L 326.0 597.0 L 325.0 596.0 L 314.0 597.0 L 299.0 604.0 L 291.0 612.0 L 285.0 621.0 L 278.0 636.0 L 274.0 652.0 L 274.0 660.0 L 273.0 661.0 L 274.0 689.0 L 280.0 708.0 L 288.0 721.0 L 293.0 726.0 L 299.0 730.0 L 308.0 733.0 L 319.0 733.0 L 329.0 730.0 L 340.0 723.0 L 348.0 715.0 L 354.0 707.0 L 362.0 692.0 L 368.0 670.0 L 368.0 645.0 L 366.0 635.0 L 364.0 632.0 L 362.0 624.0 L 359.0 618.0 L 349.0 606.0 Z
M 331.0 621.0 L 337.0 624.0 L 342.0 629.0 L 346.0 636.0 L 350.0 654.0 L 349.0 670.0 L 345.0 684.0 L 338.0 696.0 L 329.0 704.0 L 324.0 706.0 L 320.0 706.0 L 314.0 703.0 L 309.0 698.0 L 304.0 689.0 L 301.0 679.0 L 301.0 659.0 L 304.0 647.0 L 306.0 648.0 L 307.0 653.0 L 310.0 656.0 L 316.0 656.0 L 319.0 653.0 L 322.0 647.0 L 321.0 637.0 L 318.0 633.0 L 316.0 632.0 L 313.0 633.0 L 311.0 631.0 L 320.0 623.0 L 325.0 621.0 Z
M 874.0 586.0 L 873.0 588.0 L 872.0 587.0 L 872.0 590.0 L 883.0 613.0 L 889.0 634.0 L 887.0 636.0 L 873.0 621.0 L 871.0 621.0 L 869.0 623.0 L 879.0 639.0 L 886.0 647.0 L 897.0 668.0 L 898.0 673.0 L 903.0 683.0 L 904.0 689.0 L 907.0 693.0 L 909.0 693.0 L 910.0 690.0 L 907.0 676.0 L 901.0 660.0 L 893.0 645.0 L 895.0 643.0 L 895.0 634.0 L 890.0 613.0 L 881.0 592.0 Z
M 607.0 584.0 L 586.0 584.0 L 577.0 586.0 L 560.0 594.0 L 553.0 599.0 L 542.0 610.0 L 532.0 625.0 L 525.0 641.0 L 520.0 662.0 L 520.0 668.0 L 519.0 669.0 L 520.0 699.0 L 525.0 718.0 L 533.0 735.0 L 538.0 742.0 L 551.0 755.0 L 563.0 762.0 L 574.0 765.0 L 587.0 765.0 L 597.0 763.0 L 611.0 756.0 L 627.0 742.0 L 639.0 726.0 L 646.0 713.0 L 653.0 694.0 L 656.0 681.0 L 657.0 667.0 L 658.0 666.0 L 657.0 641.0 L 652.0 623.0 L 647.0 613.0 L 641.0 604.0 L 629.0 593.0 L 618.0 587.0 Z
M 611.0 614.0 L 618.0 616.0 L 624.0 620.0 L 630.0 627.0 L 635.0 637.0 L 638.0 648.0 L 638.0 670.0 L 631.0 693.0 L 623.0 706.0 L 613.0 716.0 L 607.0 719.0 L 596.0 719.0 L 586.0 714.0 L 577.0 703.0 L 571.0 687.0 L 570.0 667.0 L 573.0 652.0 L 575.0 649.0 L 577.0 651.0 L 579.0 657.0 L 585.0 660.0 L 592.0 657.0 L 597.0 649.0 L 598.0 639.0 L 595.0 632.0 L 592.0 629.0 L 586.0 630.0 L 585.0 628.0 L 597.0 618.0 L 603.0 615.0 Z
M 260.0 563.0 L 260.0 572.0 L 262.0 576.0 L 268.0 581.0 L 274.0 581.0 L 278.0 579.0 L 286.0 572.0 L 296.0 566.0 L 305.0 563.0 L 316.0 562.0 L 317.0 561.0 L 329.0 562.0 L 340.0 565.0 L 353.0 571.0 L 364.0 578.0 L 370.0 577.0 L 373.0 573.0 L 371.0 565.0 L 360.0 554.0 L 341.0 543.0 L 342.0 541.0 L 352.0 542.0 L 347.0 537.0 L 337.0 531.0 L 319.0 525.0 L 301.0 525.0 L 291.0 527.0 L 279.0 533.0 L 273.0 538.0 L 266.0 547.0 L 262.0 555.0 Z
M 740.0 509.0 L 740.0 516.0 L 753.0 531.0 L 749.0 533.0 L 750.0 536.0 L 763.0 549.0 L 759.0 550.0 L 759.0 554.0 L 772.0 566.0 L 769.0 570.0 L 772.0 578.0 L 784.0 590.0 L 796.0 599.0 L 819.0 609.0 L 830.0 616.0 L 838.0 624.0 L 854.0 645.0 L 856.0 645.0 L 857.0 642.0 L 850.0 627.0 L 837.0 611.0 L 832.0 607.0 L 809.0 597.0 L 809.0 594.0 L 815.0 595.0 L 816.0 593.0 L 796.0 583.0 L 780.0 570.0 L 783.0 569.0 L 785.0 571.0 L 830.0 587.0 L 849.0 600.0 L 859.0 611.0 L 863.0 613.0 L 864.0 609.0 L 855.0 597.0 L 838.0 584.0 L 816.0 573.0 L 804.0 569.0 L 794.0 562.0 L 796.0 561.0 L 799.0 563.0 L 797.0 561.0 L 787.0 558.0 L 776.0 551.0 L 768.0 543.0 L 769.0 541.0 L 793.0 553.0 L 810.0 558.0 L 813.0 556.0 L 809.0 552.0 L 757.0 520.0 L 743.0 509.0 Z
M 693.0 556.0 L 687.0 545.0 L 675.0 534.0 L 659.0 525.0 L 647.0 521.0 L 643.0 521.0 L 636.0 518.0 L 637.0 516.0 L 649.0 516.0 L 646.0 514.0 L 641.0 513.0 L 638.0 511.0 L 632.0 511.0 L 624.0 509.0 L 611.0 509.0 L 594.0 513.0 L 584.0 517.0 L 566.0 527.0 L 554.0 536.0 L 543.0 546.0 L 527.0 565.0 L 519.0 579.0 L 519.0 585.0 L 522.0 589.0 L 528.0 589.0 L 555.0 571.0 L 581.0 559.0 L 601.0 555.0 L 622.0 555.0 L 648.0 563.0 L 674.0 578.0 L 682.0 584.0 L 688.0 587.0 L 692.0 587.0 L 694.0 585.0 L 694.0 578.0 L 691.0 573.0 L 670.0 552.0 L 672.0 551.0 L 674.0 553.0 L 689.0 560.0 L 692.0 560.0 Z
M 285.0 470.0 L 218.0 531.0 L 251.0 516.0 L 199.0 600.0 L 225.0 590.0 L 199.0 751.0 L 231.0 764.0 L 204.0 776.0 L 250.0 799.0 L 212.0 839.0 L 237.0 838.0 L 207.0 920.0 L 242.0 1029.0 L 329.0 1079.0 L 452.0 1088.0 L 589.0 1040.0 L 673.0 956.0 L 687.0 971.0 L 680.0 933.0 L 650.0 923.0 L 624.0 950.0 L 663.0 940.0 L 642.0 975.0 L 550.0 1041.0 L 363.0 1065.0 L 337.0 1003.0 L 346.0 899.0 L 315.0 977.0 L 329.0 1055.0 L 247.0 1005.0 L 223.0 934.0 L 242.0 862.0 L 296.0 805.0 L 364.0 868.0 L 427.0 835.0 L 461.0 843.0 L 481.0 804.0 L 609.0 833.0 L 695.0 887.0 L 732.0 964.0 L 680.0 1081.0 L 577.0 1164.0 L 480.0 1187.0 L 392.0 1177.0 L 324.0 1142.0 L 271.0 1068.0 L 307.0 1150.0 L 392.0 1194.0 L 482.0 1203.0 L 638.0 1147.0 L 713.0 1062.0 L 747.0 979.0 L 713.0 882.0 L 745.0 897.0 L 672.0 831.0 L 743.0 844.0 L 707.0 820.0 L 738.0 825.0 L 775.0 869.0 L 730.0 849.0 L 790.0 899.0 L 777.0 857.0 L 811.0 909.0 L 772.0 826.0 L 797.0 870.0 L 737.0 806.0 L 803.0 845.0 L 763.0 793.0 L 809.0 827.0 L 822.0 927.0 L 824.0 844.0 L 821.0 967.0 L 804.0 937.0 L 828.0 998.0 L 851.0 918.0 L 838.0 1018.0 L 859.0 950.0 L 873.0 961.0 L 857.0 827.0 L 838.0 802.0 L 848.0 883.0 L 806.0 800.0 L 770.0 787.0 L 817.0 794.0 L 803.0 775.0 L 853.0 805.0 L 802.0 745.0 L 855.0 790.0 L 801.0 724.0 L 862.0 789.0 L 798.0 687.0 L 886.0 790.0 L 802.0 678.0 L 797.0 648.0 L 854.0 715.0 L 798.0 632.0 L 830.0 635.0 L 780.0 598.0 L 798.0 764.0 L 650.0 830.0 L 477.0 793.0 L 392.0 742.0 L 323.0 757.0 L 292.0 805.0 L 237.0 729.0 L 244.0 567.0 L 303.0 478.0 L 377.0 526.0 L 362.0 455.0 L 356.0 491.0 L 332.0 460.0 Z
M 260.0 809.0 L 259.0 811.0 L 239.0 823.0 L 223.0 835.0 L 222.0 834.0 L 225.0 827.0 L 241.0 812.0 L 251.0 808.0 L 259.0 808.0 Z
M 313.0 796.0 L 317.0 787.0 L 327.0 775.0 L 339.0 767.0 L 359.0 759.0 L 369.0 758.0 L 370.0 761.0 L 367.0 765.0 L 365.0 775.0 L 369.0 780.0 L 374.0 780.0 L 379.0 771.0 L 388.0 762.0 L 395.0 760.0 L 405.0 761.0 L 427.0 769.0 L 445.0 780.0 L 458.0 793.0 L 462.0 799.0 L 464.0 805.0 L 464.0 815.0 L 460.0 823.0 L 455.0 828.0 L 445.0 831.0 L 441.0 830.0 L 442.0 823.0 L 440.0 819.0 L 435.0 816.0 L 428.0 815.0 L 416.0 818.0 L 401.0 826.0 L 376.0 847.0 L 369.0 850.0 L 361.0 850.0 L 355.0 847.0 L 344.0 836.0 L 338.0 824.0 L 337.0 818.0 L 331.0 810.0 L 328.0 808.0 L 326.0 810.0 L 326.0 816.0 L 325.0 817.0 L 321.0 816.0 L 315.0 810.0 L 313.0 806.0 Z
M 221.0 728.0 L 222.0 729.0 L 222.0 735.0 L 224.0 738.0 L 224.0 743.0 L 223.0 744.0 L 219.0 742.0 L 214.0 742.0 L 208.0 746.0 L 207.0 744.0 L 209.0 739.0 Z
M 377.0 455.0 L 373.0 464.0 L 373.0 484.0 L 374.0 485.0 L 377.0 508.0 L 382.0 525.0 L 389.0 540.0 L 397.0 550.0 L 400.0 551.0 L 401.0 548.0 L 394.0 534.0 L 389.0 518.0 L 389.0 510.0 L 387.0 501.0 L 387.0 472.0 L 391.0 459.0 L 391.0 455.0 L 389.0 453.0 L 386.0 457.0 L 382.0 473.0 L 382.0 482.0 L 380.0 484.0 L 378.0 481.0 L 379.0 457.0 Z
M 598.0 455.0 L 596.0 454.0 L 580.0 455.0 L 576.0 456.0 L 566.0 463.0 L 564.0 463.0 L 563.0 461.0 L 569.0 454.0 L 570.0 451.0 L 568.0 449.0 L 563.0 450.0 L 536.0 489.0 L 533.0 491.0 L 532.0 489.0 L 537.0 480.0 L 538.0 475.0 L 545.0 459.0 L 546.0 449.0 L 542.0 448.0 L 535.0 471.0 L 532.0 474.0 L 531.0 473.0 L 532.0 468.0 L 531.0 451.0 L 529.0 448.0 L 526.0 448.0 L 525.0 450.0 L 526.0 453.0 L 526.0 480.0 L 524.0 489.0 L 513.0 514.0 L 504.0 525.0 L 499.0 534.0 L 504.0 532.0 L 510.0 527.0 L 555.0 481.0 L 567.0 471.0 L 587.0 460.0 L 597.0 457.0 Z
M 512.0 447.0 L 509.0 448.0 L 509.0 453.0 L 511.0 459.0 L 511.0 470.0 L 510.0 471.0 L 509.0 483.0 L 502.0 503.0 L 487.0 528.0 L 469.0 549.0 L 470.0 551.0 L 475.0 550.0 L 481.0 546.0 L 491.0 536.0 L 508.0 508.0 L 508.0 505.0 L 513.0 493.0 L 516.0 477.0 L 516.0 460.0 L 514.0 450.0 Z
M 502.0 449.0 L 491.0 487.0 L 488.0 456.0 L 482.0 445.0 L 479.0 448.0 L 483.0 469.0 L 483.0 491.0 L 479.0 509.0 L 466.0 536.0 L 451.0 553.0 L 462.0 524.0 L 466.0 503.0 L 463.0 463.0 L 458.0 450.0 L 455.0 447.0 L 453.0 449.0 L 459.0 487.0 L 456.0 518.0 L 444.0 548.0 L 432.0 564.0 L 437.0 515.0 L 437.0 468.0 L 441.0 446.0 L 439.0 445.0 L 435.0 451.0 L 432.0 471.0 L 429.0 468.0 L 424.0 449.0 L 421.0 452.0 L 430.0 494.0 L 428.0 530.0 L 415.0 489.0 L 414.0 472.0 L 408.0 479.0 L 413.0 455.0 L 412.0 448.0 L 408.0 450.0 L 400.0 475.0 L 398.0 505.0 L 406.0 544.0 L 422.0 571.0 L 421.0 618.0 L 425.0 625.0 L 430.0 624.0 L 433.0 616.0 L 435.0 575.0 L 443.0 564.0 L 449.0 564.0 L 464.0 551.0 L 477.0 531.0 L 501.0 474.0 Z
M 410.0 491.0 L 412.0 493.0 L 415.0 509.0 L 426.0 542.0 L 426.0 554.0 L 424.0 561.0 L 422.0 560.0 L 413.0 531.0 L 411.0 529.0 L 411.0 524.0 L 409.0 517.0 L 409.0 504.0 L 408.0 503.0 L 409.0 500.0 L 408.0 496.0 Z
M 824.0 215.0 L 820.0 216.0 L 818.0 219.0 L 822.0 231.0 L 822.0 242.0 L 817.0 253.0 L 817.0 257.0 L 819.0 259.0 L 823.0 258.0 L 827.0 254.0 L 831.0 247.0 L 833.0 240.0 L 832.0 224.0 L 830.0 220.0 Z" fill="#ffd700" fill-rule="evenodd"/>
</svg>
