<?xml version="1.0" encoding="UTF-8"?>
<svg xmlns="http://www.w3.org/2000/svg" width="1024" height="1024" viewBox="0 0 1024 1024">
  <title>SCW Logo</title>
  <defs>
    <linearGradient id="scw-gold-gradient" x1="0%" y1="0%" x2="100%" y2="100%">
      <stop offset="0%" stop-color="#fff7b0"/>
      <stop offset="28%" stop-color="#ffd700"/>
      <stop offset="52%" stop-color="#b8860b"/>
      <stop offset="76%" stop-color="#fff2a8"/>
      <stop offset="100%" stop-color="#8a6500"/>
    </linearGradient>
  </defs>
  <path d="M 511 864 L 510 865 L 510 869 L 511 870 L 511 874 L 512 875 L 512 877 L 511 878 L 511 879 L 504 886 L 504 889 L 505 890 L 516 890 L 518 892 L 518 894 L 519 895 L 519 897 L 520 898 L 520 899 L 521 900 L 521 901 L 523 903 L 524 902 L 524 901 L 525 900 L 525 899 L 526 898 L 526 895 L 527 894 L 527 891 L 528 890 L 530 890 L 531 889 L 536 889 L 537 888 L 541 888 L 541 885 L 540 885 L 538 883 L 537 883 L 535 881 L 534 881 L 531 878 L 531 876 L 532 875 L 532 872 L 533 871 L 533 865 L 532 865 L 531 864 L 528 867 L 527 867 L 525 869 L 524 869 L 522 871 L 520 871 L 516 867 L 515 867 L 512 864 Z M 470 861 L 469 862 L 468 862 L 468 864 L 469 865 L 469 872 L 470 873 L 470 875 L 468 877 L 467 877 L 465 879 L 464 879 L 461 882 L 460 882 L 459 883 L 459 885 L 461 887 L 469 887 L 470 888 L 471 888 L 472 889 L 472 890 L 473 891 L 473 895 L 474 896 L 474 898 L 475 899 L 475 900 L 478 900 L 479 899 L 479 898 L 481 896 L 481 894 L 482 893 L 482 891 L 484 889 L 493 889 L 494 890 L 497 890 L 498 889 L 498 888 L 497 887 L 497 886 L 496 885 L 496 884 L 495 883 L 494 883 L 491 880 L 491 879 L 490 878 L 490 875 L 491 874 L 491 871 L 492 870 L 492 869 L 493 868 L 493 866 L 492 865 L 489 865 L 488 866 L 487 866 L 486 867 L 485 867 L 483 869 L 479 869 L 478 868 L 477 868 L 475 866 L 475 865 L 473 863 L 472 863 Z M 428 855 L 428 859 L 427 860 L 427 862 L 428 863 L 428 866 L 427 867 L 426 867 L 424 869 L 423 869 L 421 871 L 420 871 L 419 872 L 418 872 L 416 874 L 416 877 L 419 877 L 420 878 L 426 878 L 429 881 L 429 888 L 430 889 L 430 893 L 431 894 L 432 894 L 434 892 L 434 891 L 436 889 L 436 888 L 441 883 L 443 883 L 444 884 L 447 884 L 448 885 L 451 885 L 452 886 L 454 884 L 454 883 L 453 882 L 453 881 L 450 878 L 450 877 L 447 874 L 447 872 L 448 871 L 448 870 L 449 869 L 449 868 L 451 866 L 451 865 L 452 864 L 452 863 L 453 862 L 451 860 L 450 861 L 446 861 L 445 862 L 444 862 L 443 863 L 441 863 L 440 864 L 438 864 L 435 861 L 435 860 L 430 855 Z M 622 876 L 618 871 L 616 871 L 614 869 L 611 868 L 608 865 L 608 864 L 609 863 L 609 854 L 607 854 L 605 856 L 604 856 L 602 858 L 602 859 L 598 862 L 597 862 L 588 857 L 586 857 L 585 860 L 586 861 L 586 863 L 587 864 L 590 871 L 587 875 L 587 876 L 585 878 L 585 880 L 584 881 L 583 881 L 581 879 L 578 878 L 576 876 L 575 876 L 572 874 L 572 871 L 573 870 L 573 867 L 574 866 L 574 862 L 573 861 L 570 861 L 564 867 L 563 867 L 562 868 L 557 866 L 553 863 L 550 863 L 550 867 L 554 874 L 554 877 L 548 883 L 546 890 L 549 890 L 550 889 L 552 889 L 553 888 L 556 888 L 557 887 L 558 887 L 561 889 L 564 896 L 567 899 L 568 898 L 568 896 L 569 895 L 569 892 L 570 891 L 570 887 L 573 884 L 577 884 L 578 883 L 586 883 L 587 882 L 590 882 L 593 880 L 597 880 L 598 881 L 601 888 L 603 890 L 603 891 L 606 892 L 607 891 L 607 886 L 608 885 L 608 879 L 610 877 L 613 877 L 614 876 Z M 374 861 L 374 862 L 375 863 L 376 863 L 377 864 L 380 864 L 381 865 L 383 865 L 384 866 L 385 866 L 387 868 L 387 871 L 386 872 L 386 879 L 387 880 L 388 880 L 389 879 L 390 879 L 397 872 L 400 872 L 401 873 L 403 873 L 404 874 L 406 874 L 407 875 L 411 875 L 411 872 L 410 871 L 410 870 L 408 868 L 408 867 L 407 866 L 407 865 L 405 863 L 405 861 L 408 858 L 408 857 L 412 853 L 412 850 L 406 850 L 405 851 L 403 851 L 402 852 L 397 852 L 395 850 L 395 849 L 392 846 L 392 845 L 391 844 L 390 844 L 389 843 L 388 844 L 387 844 L 387 846 L 386 847 L 386 855 L 385 856 L 381 856 L 380 857 L 379 857 L 378 858 L 377 858 Z M 646 843 L 645 843 L 644 842 L 643 842 L 642 843 L 642 844 L 640 846 L 640 847 L 638 849 L 638 850 L 636 852 L 632 852 L 631 851 L 629 851 L 628 850 L 627 850 L 626 849 L 623 849 L 622 850 L 622 852 L 623 853 L 623 854 L 628 859 L 628 860 L 629 861 L 629 864 L 628 865 L 628 866 L 627 867 L 627 868 L 626 869 L 626 870 L 625 871 L 625 872 L 624 873 L 624 875 L 625 876 L 627 876 L 628 875 L 629 875 L 630 874 L 631 874 L 632 873 L 634 873 L 635 872 L 639 872 L 647 880 L 649 880 L 650 879 L 650 875 L 649 874 L 649 870 L 648 869 L 648 868 L 651 865 L 652 865 L 653 864 L 655 864 L 656 863 L 658 863 L 659 862 L 660 862 L 660 859 L 659 859 L 657 857 L 654 857 L 653 856 L 651 856 L 650 855 L 648 855 L 647 854 L 647 849 L 646 848 Z M 687 826 L 684 826 L 682 828 L 682 829 L 680 831 L 680 832 L 679 833 L 679 834 L 677 836 L 673 836 L 672 835 L 669 835 L 668 834 L 667 834 L 666 833 L 665 833 L 663 835 L 663 837 L 664 838 L 664 839 L 667 842 L 667 843 L 670 846 L 670 847 L 669 848 L 669 849 L 668 850 L 668 852 L 667 853 L 667 854 L 666 855 L 666 857 L 665 858 L 665 861 L 667 861 L 668 860 L 669 860 L 670 859 L 671 859 L 672 858 L 673 858 L 674 857 L 675 857 L 677 855 L 679 855 L 685 861 L 686 861 L 688 863 L 689 863 L 690 864 L 691 864 L 691 857 L 690 856 L 690 851 L 692 849 L 694 849 L 695 848 L 696 848 L 697 847 L 698 847 L 699 846 L 700 846 L 701 845 L 701 843 L 699 841 L 696 841 L 695 840 L 692 840 L 691 839 L 690 839 L 688 837 L 688 834 L 687 833 Z M 346 826 L 346 827 L 345 828 L 345 831 L 344 832 L 344 837 L 343 838 L 343 839 L 342 840 L 336 840 L 335 841 L 334 841 L 333 842 L 332 842 L 331 843 L 330 843 L 330 845 L 331 845 L 332 846 L 333 846 L 334 847 L 335 847 L 336 848 L 337 848 L 338 849 L 339 849 L 340 850 L 341 850 L 342 851 L 342 861 L 341 862 L 342 863 L 342 864 L 344 864 L 348 860 L 349 860 L 353 856 L 355 856 L 356 857 L 357 857 L 359 859 L 360 859 L 361 860 L 362 860 L 363 861 L 364 861 L 365 862 L 367 862 L 368 861 L 367 860 L 367 858 L 366 857 L 366 856 L 365 855 L 365 854 L 364 853 L 364 852 L 363 851 L 363 847 L 364 846 L 364 845 L 369 840 L 369 839 L 370 838 L 369 837 L 368 837 L 367 836 L 366 837 L 359 837 L 358 838 L 356 838 L 353 835 L 353 834 L 352 833 L 352 832 L 350 830 L 350 829 L 347 826 Z M 720 804 L 719 805 L 719 806 L 718 807 L 718 809 L 717 810 L 717 812 L 716 813 L 716 815 L 714 817 L 703 817 L 701 819 L 702 820 L 702 821 L 703 821 L 707 825 L 708 825 L 712 829 L 712 830 L 711 831 L 711 832 L 710 833 L 710 836 L 709 837 L 709 842 L 710 843 L 711 842 L 712 842 L 714 840 L 715 840 L 717 838 L 718 838 L 720 836 L 723 836 L 726 839 L 727 839 L 729 841 L 730 841 L 731 842 L 734 842 L 734 837 L 733 836 L 733 834 L 732 833 L 732 831 L 731 830 L 731 828 L 735 824 L 736 824 L 738 822 L 739 822 L 740 821 L 740 820 L 741 819 L 739 817 L 728 817 L 727 816 L 727 815 L 726 814 L 726 813 L 725 812 L 725 811 L 724 810 L 724 809 L 723 808 L 723 806 L 721 804 Z M 310 804 L 310 805 L 309 806 L 309 807 L 308 808 L 308 810 L 307 811 L 307 813 L 306 814 L 306 815 L 305 816 L 305 817 L 304 818 L 303 818 L 302 817 L 301 818 L 299 818 L 298 817 L 294 817 L 293 818 L 292 818 L 291 819 L 291 821 L 292 822 L 293 822 L 296 825 L 297 825 L 301 829 L 301 831 L 300 832 L 300 835 L 299 836 L 299 840 L 298 841 L 300 843 L 301 843 L 302 842 L 303 842 L 305 840 L 306 840 L 310 836 L 313 836 L 314 837 L 315 837 L 317 839 L 318 839 L 320 841 L 321 841 L 322 842 L 323 842 L 324 843 L 325 842 L 325 839 L 324 838 L 324 836 L 323 835 L 323 833 L 322 832 L 322 831 L 321 830 L 321 827 L 322 826 L 323 826 L 325 824 L 326 824 L 328 822 L 329 822 L 331 820 L 331 819 L 330 819 L 328 817 L 320 817 L 319 816 L 317 816 L 316 815 L 316 814 L 315 813 L 315 811 L 314 810 L 314 808 L 313 807 L 313 806 L 312 805 L 312 804 Z M 756 777 L 756 778 L 755 779 L 755 781 L 754 782 L 754 784 L 753 785 L 753 788 L 751 790 L 748 790 L 747 791 L 740 791 L 739 792 L 739 794 L 742 797 L 743 797 L 745 799 L 746 799 L 749 802 L 749 804 L 748 805 L 748 808 L 747 809 L 747 811 L 746 812 L 746 814 L 747 815 L 747 816 L 748 816 L 749 815 L 750 815 L 751 814 L 752 814 L 756 810 L 757 810 L 758 809 L 761 809 L 762 810 L 763 810 L 764 811 L 765 811 L 767 813 L 768 813 L 769 814 L 773 814 L 772 813 L 772 809 L 771 808 L 771 806 L 770 805 L 770 804 L 769 803 L 769 800 L 778 791 L 778 790 L 777 789 L 764 789 L 763 788 L 763 787 L 762 786 L 762 785 L 761 784 L 761 783 L 760 782 L 760 781 L 759 780 L 759 779 L 757 777 Z M 274 777 L 273 777 L 271 779 L 271 780 L 270 781 L 270 782 L 269 783 L 269 784 L 268 785 L 268 786 L 267 787 L 267 788 L 266 789 L 265 789 L 264 790 L 262 790 L 261 789 L 260 790 L 253 790 L 253 793 L 254 794 L 255 794 L 259 798 L 260 798 L 263 801 L 263 802 L 262 803 L 262 805 L 261 806 L 261 808 L 260 809 L 260 810 L 259 811 L 259 814 L 260 815 L 261 815 L 262 814 L 263 814 L 265 812 L 266 812 L 268 810 L 269 810 L 270 809 L 274 809 L 277 812 L 278 812 L 280 814 L 282 814 L 283 815 L 285 815 L 285 811 L 284 810 L 284 808 L 283 807 L 283 804 L 282 803 L 282 801 L 284 799 L 285 799 L 287 797 L 288 797 L 292 793 L 292 792 L 291 791 L 289 791 L 288 790 L 279 790 L 277 788 L 277 785 L 276 784 L 276 782 L 275 781 L 275 779 L 274 778 Z M 788 749 L 787 750 L 787 752 L 786 753 L 786 759 L 785 760 L 785 761 L 784 762 L 783 762 L 782 763 L 776 763 L 775 764 L 774 764 L 773 765 L 773 766 L 776 769 L 777 769 L 778 770 L 779 770 L 780 771 L 781 771 L 782 772 L 783 772 L 784 773 L 784 782 L 783 783 L 783 786 L 784 787 L 785 787 L 786 786 L 787 786 L 794 779 L 797 779 L 798 780 L 799 780 L 800 781 L 801 781 L 802 782 L 803 782 L 804 783 L 805 783 L 806 784 L 808 784 L 808 783 L 809 782 L 808 781 L 808 779 L 807 778 L 807 776 L 805 774 L 805 773 L 804 772 L 804 769 L 809 764 L 809 763 L 811 761 L 811 759 L 812 758 L 805 758 L 804 759 L 797 759 L 795 757 L 795 756 L 792 753 L 792 752 L 789 749 Z M 221 758 L 221 761 L 227 767 L 227 768 L 228 769 L 228 772 L 227 773 L 227 774 L 226 775 L 226 776 L 225 777 L 225 779 L 224 780 L 224 781 L 223 782 L 225 784 L 226 784 L 227 783 L 228 783 L 230 781 L 231 781 L 232 780 L 233 780 L 234 779 L 235 779 L 236 778 L 237 778 L 246 787 L 247 787 L 248 788 L 249 788 L 250 787 L 250 786 L 251 785 L 249 783 L 249 779 L 248 778 L 248 773 L 249 772 L 250 772 L 252 770 L 253 770 L 254 769 L 255 769 L 256 768 L 257 768 L 259 766 L 259 765 L 258 764 L 257 764 L 256 763 L 253 763 L 252 762 L 247 762 L 245 760 L 245 757 L 244 756 L 244 750 L 243 749 L 243 748 L 242 748 L 241 749 L 240 749 L 240 750 L 238 752 L 238 753 L 237 754 L 237 755 L 233 759 L 231 759 L 230 758 L 225 758 L 224 757 L 223 758 Z M 802 734 L 804 736 L 805 736 L 806 737 L 807 737 L 808 738 L 809 738 L 810 739 L 813 739 L 816 742 L 816 754 L 817 754 L 818 755 L 822 751 L 822 750 L 827 745 L 829 745 L 830 746 L 834 746 L 835 747 L 840 747 L 841 748 L 842 747 L 842 745 L 840 743 L 840 742 L 836 738 L 836 737 L 834 735 L 834 734 L 836 732 L 836 731 L 838 729 L 838 728 L 840 726 L 840 723 L 839 723 L 838 722 L 837 723 L 834 723 L 833 724 L 830 724 L 829 725 L 827 725 L 825 723 L 825 722 L 821 718 L 821 717 L 819 715 L 818 715 L 817 716 L 816 716 L 816 727 L 813 730 L 811 730 L 810 731 L 807 731 L 806 732 L 804 732 Z M 190 723 L 190 725 L 193 728 L 193 729 L 194 730 L 194 731 L 196 733 L 196 734 L 197 735 L 197 736 L 196 737 L 196 738 L 195 739 L 195 740 L 193 742 L 193 743 L 192 744 L 192 745 L 191 746 L 191 748 L 195 748 L 196 747 L 199 747 L 200 746 L 205 746 L 208 749 L 208 750 L 213 755 L 214 755 L 215 756 L 216 756 L 216 754 L 217 753 L 217 752 L 216 751 L 216 742 L 218 740 L 219 740 L 220 739 L 222 739 L 223 738 L 224 738 L 225 737 L 226 737 L 228 735 L 228 734 L 227 733 L 226 733 L 225 732 L 224 732 L 223 731 L 220 731 L 219 730 L 217 730 L 216 729 L 215 729 L 214 728 L 214 722 L 215 721 L 215 719 L 214 718 L 214 716 L 213 716 L 212 715 L 209 718 L 209 719 L 208 720 L 208 721 L 207 722 L 207 723 L 205 725 L 199 725 L 198 724 L 196 724 L 195 723 Z M 841 678 L 840 679 L 840 691 L 838 693 L 837 693 L 835 695 L 834 695 L 833 696 L 832 696 L 831 697 L 830 697 L 828 699 L 828 700 L 827 701 L 828 702 L 829 702 L 830 703 L 834 703 L 835 704 L 837 704 L 838 705 L 839 705 L 841 707 L 841 713 L 842 714 L 842 717 L 843 718 L 845 718 L 847 716 L 847 715 L 848 714 L 848 713 L 849 712 L 849 711 L 853 707 L 857 707 L 858 708 L 861 708 L 862 709 L 864 709 L 865 710 L 867 708 L 866 707 L 866 705 L 861 700 L 861 699 L 860 698 L 860 694 L 862 692 L 862 691 L 863 690 L 863 689 L 864 688 L 864 686 L 865 685 L 864 684 L 864 683 L 861 683 L 860 684 L 859 684 L 858 685 L 856 685 L 855 686 L 854 686 L 853 687 L 850 687 L 849 686 L 849 685 L 846 682 L 846 681 L 843 678 Z M 191 678 L 189 678 L 188 679 L 187 679 L 186 680 L 186 681 L 179 688 L 178 688 L 176 686 L 175 686 L 174 685 L 173 685 L 172 684 L 170 684 L 169 683 L 166 683 L 166 685 L 167 686 L 167 689 L 168 690 L 168 691 L 169 692 L 169 694 L 170 695 L 170 697 L 167 700 L 167 701 L 164 704 L 164 705 L 162 707 L 162 709 L 163 710 L 166 710 L 167 709 L 169 709 L 170 708 L 173 708 L 174 707 L 177 707 L 179 709 L 179 710 L 180 711 L 180 712 L 181 713 L 181 714 L 182 715 L 182 716 L 184 718 L 185 718 L 186 719 L 187 718 L 187 716 L 188 715 L 188 708 L 189 707 L 189 706 L 190 705 L 194 705 L 195 704 L 199 704 L 200 703 L 202 703 L 202 701 L 200 699 L 199 699 L 197 697 L 196 697 L 194 695 L 193 695 L 190 692 L 190 686 L 191 685 L 191 682 L 192 681 L 192 680 L 191 679 Z M 148 643 L 148 648 L 149 649 L 149 652 L 150 653 L 150 657 L 145 662 L 144 662 L 143 663 L 143 664 L 142 665 L 142 668 L 152 668 L 153 667 L 155 667 L 157 669 L 157 671 L 158 672 L 158 673 L 159 674 L 159 676 L 160 677 L 160 678 L 163 681 L 164 681 L 164 678 L 165 677 L 165 674 L 166 673 L 166 670 L 167 669 L 167 668 L 168 667 L 170 667 L 171 666 L 175 666 L 176 665 L 180 665 L 181 664 L 181 662 L 180 661 L 179 661 L 177 659 L 176 659 L 175 658 L 174 658 L 170 654 L 170 650 L 171 649 L 171 645 L 172 644 L 172 643 L 171 642 L 171 641 L 169 641 L 167 643 L 166 643 L 162 647 L 161 647 L 160 648 L 158 648 L 157 647 L 156 647 L 155 646 L 154 646 L 152 644 L 151 644 L 150 643 Z M 859 639 L 859 640 L 858 641 L 858 646 L 859 647 L 859 654 L 858 655 L 857 655 L 855 657 L 854 657 L 852 659 L 851 659 L 849 661 L 849 664 L 850 664 L 851 665 L 859 665 L 860 666 L 862 666 L 863 667 L 863 668 L 864 669 L 864 671 L 865 672 L 865 674 L 866 675 L 866 677 L 868 679 L 869 679 L 871 677 L 871 675 L 872 674 L 872 671 L 873 670 L 873 669 L 875 667 L 884 667 L 885 668 L 886 667 L 888 667 L 889 666 L 889 665 L 888 664 L 888 663 L 886 661 L 885 661 L 879 655 L 879 654 L 880 653 L 880 651 L 881 650 L 881 649 L 882 648 L 882 645 L 883 644 L 882 643 L 882 642 L 880 642 L 879 643 L 878 643 L 876 645 L 875 645 L 874 646 L 873 646 L 871 648 L 870 648 L 867 645 L 866 645 L 861 640 L 860 640 Z M 896 598 L 895 599 L 894 599 L 893 600 L 892 600 L 889 603 L 888 603 L 886 605 L 883 605 L 881 603 L 880 603 L 878 601 L 877 601 L 875 599 L 872 599 L 872 604 L 873 605 L 873 608 L 875 610 L 875 613 L 874 614 L 873 614 L 871 616 L 870 616 L 868 618 L 867 618 L 864 621 L 864 623 L 870 623 L 871 624 L 878 624 L 879 625 L 879 626 L 880 627 L 880 628 L 881 629 L 881 631 L 882 632 L 882 635 L 884 637 L 886 637 L 886 636 L 887 635 L 887 634 L 888 633 L 888 631 L 889 630 L 889 629 L 890 628 L 890 626 L 892 624 L 902 624 L 903 623 L 905 623 L 905 620 L 904 619 L 903 619 L 898 614 L 897 614 L 895 612 L 895 608 L 896 607 L 896 604 L 897 603 L 897 600 L 896 599 Z M 134 598 L 133 599 L 133 600 L 132 601 L 133 602 L 133 606 L 134 607 L 134 612 L 129 617 L 128 617 L 124 621 L 124 622 L 125 623 L 125 624 L 137 624 L 138 625 L 139 625 L 140 626 L 140 628 L 141 629 L 141 631 L 142 632 L 142 634 L 143 635 L 143 636 L 144 637 L 145 637 L 147 635 L 147 632 L 148 631 L 148 629 L 149 628 L 149 626 L 151 624 L 159 624 L 160 623 L 161 623 L 162 624 L 163 624 L 164 623 L 164 620 L 163 619 L 162 619 L 158 615 L 157 615 L 155 613 L 155 607 L 156 606 L 156 604 L 157 603 L 157 601 L 158 600 L 157 599 L 154 599 L 152 601 L 151 601 L 149 603 L 148 603 L 147 604 L 146 604 L 145 605 L 144 605 L 142 603 L 141 603 L 138 600 L 137 600 L 136 599 L 135 599 Z M 883 557 L 883 562 L 884 563 L 884 564 L 885 565 L 885 567 L 886 568 L 886 572 L 882 576 L 881 576 L 878 579 L 878 580 L 877 581 L 877 582 L 878 583 L 880 583 L 881 582 L 882 582 L 883 583 L 891 583 L 893 585 L 893 587 L 894 588 L 894 590 L 895 591 L 895 592 L 897 594 L 899 594 L 900 593 L 900 591 L 901 590 L 901 587 L 902 586 L 902 585 L 904 583 L 906 583 L 907 582 L 910 582 L 911 581 L 914 581 L 915 580 L 916 580 L 916 577 L 915 576 L 914 576 L 913 575 L 912 575 L 910 573 L 909 573 L 905 569 L 905 567 L 906 566 L 906 562 L 907 561 L 906 560 L 906 558 L 907 557 L 906 556 L 904 556 L 903 557 L 902 557 L 897 562 L 896 562 L 895 563 L 893 563 L 891 561 L 890 561 L 886 557 Z M 147 557 L 146 558 L 145 558 L 143 560 L 142 560 L 141 561 L 140 561 L 138 563 L 134 563 L 127 556 L 124 556 L 123 557 L 124 558 L 124 566 L 125 567 L 125 569 L 122 572 L 121 572 L 119 574 L 118 574 L 116 576 L 115 576 L 114 577 L 114 579 L 115 580 L 119 580 L 120 581 L 126 581 L 127 582 L 127 583 L 128 584 L 128 588 L 129 589 L 129 593 L 131 595 L 134 592 L 134 591 L 135 590 L 135 589 L 136 588 L 136 587 L 137 586 L 137 585 L 139 583 L 147 583 L 148 584 L 150 584 L 151 583 L 152 583 L 153 582 L 153 581 L 152 580 L 152 579 L 151 579 L 149 577 L 148 577 L 144 573 L 144 570 L 145 569 L 145 567 L 146 566 L 146 565 L 147 564 L 147 563 L 148 562 L 148 558 Z M 924 533 L 922 531 L 921 531 L 920 530 L 919 530 L 918 529 L 917 529 L 916 528 L 915 528 L 914 527 L 913 527 L 911 525 L 911 513 L 908 513 L 902 519 L 902 520 L 901 521 L 900 521 L 899 522 L 898 522 L 897 521 L 896 521 L 895 520 L 893 520 L 892 519 L 891 519 L 890 518 L 887 518 L 886 519 L 886 520 L 887 521 L 887 522 L 888 523 L 888 524 L 889 525 L 889 526 L 890 527 L 890 528 L 892 530 L 892 531 L 890 533 L 890 534 L 884 540 L 884 543 L 891 543 L 892 542 L 895 542 L 896 541 L 898 541 L 902 545 L 902 546 L 904 548 L 904 549 L 906 551 L 907 551 L 909 549 L 909 545 L 910 544 L 910 539 L 912 537 L 915 537 L 916 536 L 919 536 L 920 535 L 923 535 L 924 534 Z M 122 511 L 121 512 L 121 523 L 118 526 L 117 526 L 116 527 L 115 527 L 114 528 L 113 528 L 112 529 L 111 529 L 109 531 L 108 531 L 108 533 L 109 534 L 111 534 L 112 535 L 114 535 L 115 536 L 118 536 L 119 537 L 120 537 L 121 538 L 121 539 L 122 540 L 122 545 L 121 546 L 122 547 L 122 549 L 124 549 L 127 546 L 128 546 L 128 545 L 130 543 L 130 542 L 132 540 L 134 540 L 135 541 L 136 541 L 137 542 L 139 542 L 140 543 L 141 543 L 142 544 L 146 544 L 146 540 L 144 538 L 144 537 L 143 536 L 143 535 L 140 532 L 140 529 L 141 528 L 141 527 L 143 525 L 143 524 L 145 522 L 145 518 L 144 517 L 142 517 L 141 518 L 140 518 L 139 519 L 137 519 L 136 520 L 135 520 L 134 521 L 132 521 L 125 514 L 125 513 L 124 512 L 123 512 Z M 885 475 L 885 478 L 886 479 L 886 480 L 888 482 L 888 483 L 892 487 L 892 488 L 891 489 L 891 490 L 890 491 L 890 492 L 888 494 L 888 495 L 886 497 L 886 500 L 887 501 L 888 501 L 889 502 L 891 500 L 892 500 L 893 499 L 895 499 L 896 498 L 897 498 L 898 497 L 899 497 L 904 502 L 904 503 L 909 508 L 911 508 L 911 496 L 914 493 L 915 493 L 916 492 L 918 492 L 919 491 L 920 491 L 921 490 L 923 490 L 924 489 L 924 488 L 922 486 L 921 486 L 920 485 L 918 485 L 917 484 L 916 484 L 915 483 L 914 483 L 913 482 L 912 482 L 911 481 L 911 479 L 910 478 L 910 468 L 909 467 L 907 467 L 907 468 L 904 471 L 904 472 L 902 474 L 902 475 L 899 478 L 896 478 L 895 477 L 894 477 L 893 476 L 891 476 L 890 475 Z M 144 475 L 140 475 L 139 476 L 138 476 L 137 477 L 135 477 L 134 478 L 132 478 L 129 475 L 129 474 L 127 472 L 127 471 L 126 470 L 126 469 L 124 467 L 123 467 L 121 469 L 121 479 L 119 481 L 118 481 L 117 482 L 116 482 L 115 483 L 112 483 L 111 484 L 110 484 L 109 485 L 108 485 L 107 486 L 107 487 L 109 489 L 110 489 L 111 490 L 113 490 L 114 491 L 115 491 L 116 492 L 117 492 L 120 495 L 120 496 L 119 497 L 119 504 L 120 505 L 120 506 L 123 506 L 124 505 L 124 504 L 127 501 L 127 500 L 130 497 L 132 497 L 133 498 L 134 498 L 135 499 L 137 499 L 138 500 L 139 500 L 140 501 L 142 501 L 144 499 L 143 498 L 143 497 L 142 496 L 142 495 L 141 494 L 141 493 L 139 491 L 139 490 L 138 489 L 138 487 L 140 485 L 140 484 L 144 480 L 144 479 L 145 478 L 145 476 Z M 903 423 L 901 423 L 901 424 L 900 425 L 899 425 L 899 426 L 897 428 L 897 429 L 896 430 L 896 431 L 894 433 L 894 434 L 893 435 L 887 435 L 886 434 L 884 434 L 883 433 L 881 433 L 880 434 L 880 435 L 881 436 L 881 438 L 882 438 L 883 439 L 883 440 L 887 444 L 887 445 L 888 446 L 888 447 L 887 448 L 887 449 L 886 450 L 886 451 L 885 452 L 885 453 L 884 454 L 884 455 L 883 456 L 883 459 L 884 460 L 886 460 L 887 459 L 888 459 L 889 458 L 890 458 L 892 456 L 893 456 L 894 455 L 895 455 L 896 454 L 897 454 L 899 456 L 900 456 L 904 460 L 905 460 L 907 462 L 909 462 L 910 461 L 910 459 L 909 458 L 909 455 L 908 454 L 908 449 L 910 447 L 911 447 L 913 445 L 914 445 L 916 443 L 917 443 L 918 442 L 918 440 L 917 439 L 915 439 L 914 438 L 910 438 L 909 437 L 906 437 L 905 436 L 905 433 L 904 432 L 904 427 L 903 426 Z M 128 423 L 127 424 L 127 427 L 126 428 L 126 431 L 125 432 L 125 435 L 122 438 L 117 438 L 116 439 L 113 439 L 112 440 L 111 440 L 111 441 L 112 442 L 112 443 L 113 443 L 114 444 L 115 444 L 117 446 L 118 446 L 119 447 L 120 447 L 122 449 L 122 454 L 121 455 L 121 459 L 120 460 L 120 461 L 121 462 L 124 462 L 132 454 L 134 454 L 135 455 L 136 455 L 137 456 L 138 456 L 139 457 L 140 457 L 141 458 L 143 458 L 144 459 L 147 459 L 148 458 L 147 457 L 147 456 L 145 454 L 145 453 L 144 452 L 144 450 L 143 449 L 143 448 L 142 447 L 142 444 L 143 443 L 144 443 L 150 437 L 150 434 L 151 433 L 146 433 L 145 434 L 140 434 L 139 435 L 137 435 L 134 432 L 134 431 L 133 430 L 133 429 L 132 428 L 132 427 L 131 426 L 131 425 L 130 424 L 129 424 Z M 890 379 L 889 379 L 888 380 L 888 381 L 887 382 L 887 383 L 886 384 L 886 385 L 885 386 L 885 387 L 884 388 L 884 389 L 883 390 L 883 391 L 882 392 L 877 392 L 876 391 L 870 391 L 869 392 L 870 393 L 870 395 L 878 403 L 878 405 L 877 406 L 877 408 L 876 409 L 876 410 L 875 411 L 875 414 L 874 415 L 874 417 L 875 417 L 876 418 L 877 417 L 878 417 L 879 416 L 880 416 L 882 414 L 883 414 L 885 412 L 886 412 L 887 411 L 888 411 L 889 412 L 890 412 L 893 415 L 894 415 L 896 417 L 897 417 L 898 418 L 901 418 L 901 416 L 900 415 L 900 413 L 899 412 L 899 409 L 898 408 L 898 404 L 899 403 L 900 403 L 902 401 L 903 401 L 905 399 L 906 399 L 908 397 L 908 395 L 904 395 L 903 394 L 898 394 L 897 393 L 896 393 L 894 391 L 894 390 L 893 389 L 893 386 L 892 385 L 892 383 L 891 382 L 891 380 Z M 121 392 L 121 394 L 122 395 L 122 396 L 123 396 L 131 404 L 131 405 L 130 406 L 130 409 L 129 410 L 129 412 L 128 413 L 128 417 L 130 417 L 131 416 L 132 416 L 135 413 L 136 413 L 138 411 L 139 411 L 140 410 L 143 410 L 145 412 L 146 412 L 149 415 L 150 415 L 151 416 L 152 416 L 153 417 L 154 417 L 154 410 L 153 409 L 153 408 L 152 407 L 152 406 L 151 405 L 151 402 L 155 398 L 156 398 L 160 394 L 160 392 L 159 391 L 147 391 L 145 389 L 145 387 L 144 386 L 144 384 L 143 383 L 143 382 L 142 381 L 142 380 L 141 379 L 140 379 L 139 380 L 139 381 L 138 382 L 138 384 L 137 385 L 137 386 L 136 387 L 136 389 L 134 391 L 122 391 Z M 873 335 L 871 337 L 871 339 L 870 340 L 870 342 L 869 343 L 869 344 L 868 345 L 868 347 L 867 348 L 867 349 L 866 350 L 865 350 L 864 351 L 863 351 L 862 350 L 857 350 L 856 351 L 855 351 L 855 354 L 860 359 L 861 359 L 864 362 L 864 366 L 863 367 L 863 369 L 862 370 L 862 372 L 861 373 L 861 375 L 862 375 L 863 376 L 866 376 L 874 368 L 875 368 L 876 369 L 877 369 L 879 371 L 880 371 L 882 373 L 883 373 L 884 374 L 885 374 L 886 375 L 887 374 L 888 374 L 888 371 L 887 370 L 887 369 L 886 368 L 886 367 L 885 366 L 885 363 L 884 362 L 884 361 L 892 353 L 892 351 L 893 350 L 892 350 L 891 349 L 880 349 L 878 347 L 878 346 L 877 345 L 877 344 L 876 343 L 876 342 L 875 341 L 875 339 L 874 338 L 874 336 Z M 158 335 L 155 338 L 155 339 L 154 340 L 154 341 L 153 342 L 153 343 L 151 345 L 151 346 L 150 347 L 145 347 L 144 346 L 140 346 L 139 345 L 138 346 L 137 346 L 137 348 L 136 349 L 145 358 L 145 359 L 144 360 L 144 362 L 143 363 L 143 365 L 142 366 L 142 367 L 141 368 L 141 370 L 142 371 L 142 372 L 143 372 L 144 371 L 146 371 L 147 370 L 148 370 L 150 368 L 151 368 L 152 367 L 153 367 L 154 366 L 155 366 L 164 375 L 165 375 L 166 376 L 167 375 L 167 368 L 166 367 L 166 363 L 165 362 L 165 361 L 166 360 L 167 360 L 169 358 L 170 358 L 171 357 L 172 357 L 173 356 L 174 356 L 175 355 L 176 355 L 177 354 L 177 352 L 175 352 L 174 351 L 172 351 L 171 350 L 165 350 L 164 349 L 163 349 L 162 348 L 162 346 L 161 345 L 161 341 L 160 340 L 160 336 L 159 336 Z M 871 305 L 866 305 L 865 306 L 861 306 L 860 307 L 858 307 L 857 306 L 856 306 L 855 305 L 855 304 L 853 302 L 853 301 L 851 299 L 851 298 L 850 297 L 850 296 L 849 295 L 848 296 L 847 296 L 847 299 L 846 300 L 846 303 L 845 304 L 845 307 L 842 310 L 839 310 L 838 311 L 836 311 L 835 312 L 832 312 L 832 315 L 833 315 L 835 317 L 836 317 L 837 318 L 838 318 L 839 319 L 840 319 L 841 320 L 842 320 L 843 321 L 843 329 L 842 330 L 842 333 L 843 334 L 843 335 L 845 335 L 847 333 L 848 333 L 851 330 L 851 329 L 853 327 L 857 327 L 858 328 L 859 328 L 860 329 L 862 329 L 863 330 L 868 330 L 868 328 L 867 327 L 867 326 L 866 325 L 866 324 L 865 323 L 865 322 L 864 321 L 864 320 L 863 319 L 863 317 L 865 315 L 865 314 L 868 311 L 868 310 L 870 308 L 870 306 Z M 159 304 L 159 307 L 160 308 L 160 309 L 162 311 L 162 312 L 165 315 L 165 319 L 164 320 L 164 321 L 163 322 L 163 323 L 162 324 L 162 325 L 161 326 L 161 327 L 160 328 L 160 329 L 161 330 L 164 330 L 165 329 L 167 329 L 168 328 L 169 328 L 170 327 L 171 327 L 172 326 L 175 326 L 182 333 L 183 333 L 184 334 L 186 334 L 187 333 L 186 332 L 186 326 L 185 325 L 185 320 L 186 319 L 187 319 L 188 318 L 190 318 L 191 317 L 192 317 L 193 316 L 194 316 L 195 315 L 196 315 L 197 314 L 197 312 L 196 312 L 195 311 L 192 311 L 191 310 L 189 310 L 188 309 L 185 309 L 183 307 L 183 304 L 182 303 L 182 299 L 181 298 L 181 296 L 180 296 L 179 295 L 179 296 L 177 298 L 177 299 L 175 301 L 175 302 L 173 304 L 173 305 L 172 306 L 168 306 L 167 305 L 165 305 L 164 304 Z M 822 257 L 822 259 L 821 260 L 821 266 L 820 267 L 821 268 L 821 269 L 819 271 L 818 271 L 817 272 L 814 272 L 813 273 L 810 273 L 809 274 L 808 274 L 807 275 L 808 276 L 808 277 L 809 278 L 810 278 L 811 279 L 812 279 L 813 280 L 815 280 L 816 281 L 818 281 L 820 283 L 820 289 L 819 290 L 819 294 L 821 296 L 822 296 L 830 288 L 835 288 L 836 289 L 837 289 L 838 290 L 841 290 L 842 291 L 844 291 L 845 290 L 845 289 L 844 288 L 844 287 L 843 286 L 843 285 L 842 284 L 842 283 L 840 281 L 840 280 L 839 279 L 839 277 L 840 276 L 840 275 L 842 273 L 842 272 L 843 271 L 843 270 L 844 269 L 844 268 L 845 267 L 845 265 L 844 264 L 843 265 L 839 265 L 838 266 L 836 266 L 835 267 L 832 267 L 829 264 L 829 263 L 825 259 L 825 258 L 824 257 Z M 206 254 L 203 257 L 203 258 L 201 260 L 201 261 L 197 265 L 193 265 L 192 264 L 189 264 L 188 263 L 184 263 L 184 266 L 185 267 L 185 268 L 187 270 L 187 271 L 190 274 L 190 276 L 189 277 L 189 278 L 188 279 L 188 280 L 187 281 L 187 282 L 185 284 L 185 285 L 184 286 L 184 289 L 188 289 L 189 288 L 191 288 L 192 287 L 194 287 L 195 286 L 197 286 L 204 293 L 204 294 L 205 294 L 207 296 L 208 296 L 209 295 L 209 282 L 212 279 L 213 279 L 214 278 L 216 278 L 217 277 L 219 277 L 220 276 L 221 276 L 222 275 L 222 274 L 221 273 L 221 272 L 220 272 L 219 271 L 216 271 L 215 270 L 213 270 L 212 269 L 211 269 L 209 267 L 209 264 L 208 263 L 208 256 Z M 790 221 L 790 223 L 789 224 L 790 225 L 790 234 L 787 237 L 786 237 L 784 239 L 783 239 L 779 243 L 779 244 L 780 244 L 781 245 L 786 245 L 787 246 L 789 246 L 790 247 L 791 247 L 792 248 L 792 251 L 793 252 L 793 256 L 794 257 L 794 260 L 796 260 L 798 258 L 798 257 L 800 255 L 800 254 L 802 252 L 802 251 L 803 250 L 810 250 L 811 251 L 819 251 L 818 250 L 818 249 L 815 246 L 815 245 L 811 241 L 811 240 L 810 239 L 810 237 L 811 236 L 811 234 L 812 233 L 812 232 L 813 231 L 813 230 L 814 229 L 814 226 L 810 226 L 809 227 L 808 227 L 807 228 L 806 228 L 805 229 L 804 229 L 803 230 L 800 230 L 793 223 L 793 222 L 792 222 L 791 221 Z M 251 241 L 248 238 L 247 238 L 246 237 L 244 237 L 242 235 L 241 235 L 239 233 L 239 230 L 240 229 L 240 221 L 239 220 L 238 220 L 229 229 L 227 229 L 226 228 L 225 228 L 224 227 L 223 227 L 222 226 L 221 226 L 220 225 L 219 225 L 218 224 L 217 224 L 217 225 L 216 226 L 216 229 L 217 230 L 217 232 L 218 233 L 218 234 L 219 235 L 219 238 L 213 244 L 213 245 L 212 246 L 212 249 L 214 249 L 215 250 L 216 250 L 217 249 L 219 249 L 220 248 L 225 248 L 227 250 L 227 251 L 228 252 L 228 253 L 230 255 L 230 256 L 231 257 L 231 258 L 234 258 L 235 257 L 235 254 L 236 253 L 236 248 L 237 247 L 237 246 L 238 245 L 239 245 L 240 244 L 248 244 L 249 243 L 250 243 L 250 242 Z M 780 192 L 779 193 L 778 193 L 777 194 L 776 194 L 775 195 L 774 195 L 772 197 L 771 197 L 769 199 L 766 199 L 765 198 L 764 198 L 759 193 L 758 193 L 757 192 L 756 192 L 756 201 L 757 202 L 757 206 L 755 208 L 754 208 L 752 210 L 751 210 L 749 212 L 748 212 L 747 213 L 747 215 L 748 216 L 750 216 L 751 217 L 758 217 L 759 218 L 760 218 L 762 220 L 762 224 L 763 225 L 763 227 L 764 228 L 764 229 L 766 231 L 768 229 L 768 228 L 769 227 L 769 226 L 770 225 L 770 224 L 771 223 L 771 222 L 772 221 L 772 219 L 773 218 L 783 218 L 784 219 L 786 217 L 786 216 L 785 215 L 785 214 L 777 206 L 777 203 L 778 202 L 778 200 L 779 199 L 779 197 L 780 196 L 780 195 L 779 194 L 779 193 Z M 274 190 L 272 190 L 271 191 L 270 191 L 265 196 L 264 196 L 263 197 L 261 197 L 260 196 L 259 196 L 258 195 L 257 195 L 253 191 L 251 191 L 251 197 L 252 198 L 252 200 L 253 201 L 253 206 L 251 208 L 250 208 L 244 214 L 245 215 L 245 216 L 246 216 L 247 217 L 257 217 L 259 219 L 259 220 L 260 221 L 260 222 L 261 223 L 261 224 L 263 226 L 263 227 L 264 228 L 265 228 L 267 226 L 267 223 L 268 222 L 268 217 L 271 214 L 273 214 L 274 213 L 281 213 L 282 212 L 283 212 L 283 211 L 282 210 L 282 209 L 281 208 L 280 208 L 278 206 L 277 206 L 276 205 L 275 205 L 273 203 L 273 198 L 274 197 L 274 194 L 275 193 L 275 191 Z M 743 166 L 742 166 L 741 167 L 740 167 L 739 168 L 738 168 L 737 169 L 736 169 L 734 171 L 733 171 L 732 172 L 728 172 L 727 171 L 726 171 L 724 169 L 723 169 L 721 167 L 720 167 L 719 166 L 717 168 L 717 169 L 718 170 L 718 173 L 719 174 L 719 176 L 720 177 L 720 180 L 717 183 L 716 183 L 713 186 L 713 187 L 711 189 L 711 190 L 712 191 L 722 191 L 723 190 L 724 190 L 726 192 L 726 193 L 727 194 L 727 197 L 728 198 L 728 200 L 729 201 L 729 202 L 730 203 L 730 204 L 731 204 L 731 203 L 733 201 L 733 200 L 734 199 L 734 198 L 735 197 L 735 195 L 736 194 L 736 193 L 738 191 L 749 191 L 750 190 L 750 189 L 748 187 L 748 186 L 747 185 L 746 185 L 740 179 L 740 178 L 741 177 L 741 175 L 742 174 L 742 172 L 743 171 L 743 169 L 744 168 L 743 167 Z M 315 165 L 311 165 L 310 166 L 309 166 L 307 168 L 306 168 L 305 169 L 304 169 L 303 170 L 299 170 L 294 165 L 293 165 L 291 163 L 289 165 L 289 171 L 290 172 L 290 177 L 287 180 L 286 180 L 280 186 L 280 187 L 281 188 L 292 188 L 294 190 L 294 191 L 295 192 L 295 194 L 296 195 L 296 198 L 297 199 L 297 202 L 298 202 L 299 201 L 300 201 L 300 200 L 301 199 L 301 198 L 302 197 L 302 195 L 303 194 L 303 192 L 304 191 L 304 190 L 305 189 L 314 189 L 315 190 L 319 190 L 319 188 L 318 187 L 318 186 L 311 179 L 311 175 L 312 174 L 312 172 L 313 171 L 313 170 L 314 169 L 314 167 L 315 166 Z M 494 143 L 425 154 L 354 180 L 304 210 L 250 257 L 208 312 L 175 379 L 157 451 L 154 520 L 165 591 L 197 671 L 235 726 L 281 772 L 335 809 L 406 839 L 472 853 L 537 855 L 604 844 L 672 820 L 729 787 L 784 738 L 827 680 L 856 618 L 872 554 L 876 484 L 864 412 L 842 353 L 803 288 L 753 234 L 696 193 L 632 163 L 563 146 Z M 540 695 L 545 707 L 547 719 L 554 740 L 554 743 L 556 746 L 558 754 L 560 758 L 563 761 L 564 778 L 566 781 L 568 793 L 570 795 L 574 803 L 592 823 L 590 825 L 586 825 L 585 826 L 577 827 L 572 829 L 566 829 L 565 830 L 560 830 L 559 831 L 550 831 L 549 832 L 540 832 L 539 833 L 492 833 L 491 832 L 482 831 L 481 830 L 481 824 L 475 809 L 475 805 L 473 802 L 473 800 L 467 791 L 463 783 L 463 781 L 468 777 L 469 767 L 494 748 L 506 736 L 519 718 L 532 704 L 536 697 L 538 695 Z M 512 293 L 513 292 L 517 292 L 518 293 L 521 293 L 522 294 L 525 294 L 526 295 L 526 296 L 521 301 L 518 301 L 514 297 L 514 296 L 512 294 Z M 364 199 L 428 175 L 495 164 L 612 179 L 677 207 L 734 246 L 780 293 L 817 350 L 853 465 L 853 536 L 840 598 L 816 656 L 780 710 L 734 756 L 665 799 L 642 771 L 636 595 L 591 508 L 583 383 L 595 322 L 552 258 L 497 230 L 480 235 L 499 265 L 476 262 L 440 240 L 393 242 L 372 261 L 371 311 L 386 338 L 403 344 L 431 374 L 366 407 L 256 418 L 275 433 L 271 443 L 279 448 L 336 443 L 399 452 L 387 490 L 391 505 L 412 449 L 428 445 L 474 543 L 482 606 L 448 644 L 422 719 L 387 763 L 400 812 L 345 790 L 295 756 L 217 664 L 188 595 L 177 541 L 176 475 L 188 407 L 212 347 L 255 284 L 309 233 Z M 678 145 L 678 146 L 677 147 L 678 148 L 678 151 L 679 152 L 679 153 L 680 154 L 680 155 L 681 156 L 681 159 L 680 160 L 680 161 L 675 166 L 675 167 L 674 168 L 674 171 L 675 172 L 676 171 L 679 171 L 680 170 L 684 170 L 685 169 L 687 169 L 690 172 L 690 173 L 691 174 L 691 176 L 694 179 L 694 180 L 695 180 L 696 181 L 696 180 L 697 179 L 697 177 L 698 176 L 698 171 L 699 170 L 699 168 L 700 167 L 702 167 L 703 166 L 705 166 L 706 165 L 709 165 L 710 164 L 711 164 L 712 163 L 712 162 L 711 161 L 711 160 L 710 160 L 709 159 L 708 159 L 707 158 L 705 158 L 704 157 L 703 157 L 702 156 L 701 156 L 700 155 L 700 147 L 701 146 L 701 144 L 700 143 L 700 141 L 699 141 L 695 145 L 694 145 L 691 148 L 690 148 L 689 149 L 687 149 L 686 148 L 685 148 L 684 147 L 683 147 L 682 146 L 681 146 L 680 145 Z M 331 139 L 329 141 L 329 147 L 330 148 L 330 153 L 327 156 L 326 156 L 325 157 L 324 157 L 322 159 L 321 159 L 319 161 L 320 162 L 320 163 L 321 163 L 322 164 L 325 164 L 326 165 L 329 165 L 330 166 L 332 166 L 333 167 L 333 172 L 334 173 L 334 176 L 335 177 L 335 179 L 336 179 L 337 178 L 338 178 L 338 177 L 339 176 L 339 175 L 340 174 L 340 173 L 341 172 L 341 171 L 344 168 L 349 168 L 350 169 L 357 169 L 357 168 L 358 167 L 358 166 L 354 162 L 354 161 L 353 161 L 350 158 L 350 154 L 351 153 L 351 152 L 352 151 L 352 149 L 353 148 L 353 145 L 354 144 L 349 144 L 348 145 L 347 145 L 346 146 L 345 146 L 344 147 L 343 147 L 342 148 L 341 148 L 333 140 L 332 140 Z M 633 127 L 633 131 L 634 132 L 634 134 L 635 135 L 635 136 L 636 137 L 636 138 L 637 139 L 637 140 L 638 141 L 638 142 L 636 144 L 636 145 L 634 147 L 634 148 L 633 149 L 633 150 L 631 152 L 631 154 L 632 155 L 635 155 L 636 154 L 638 154 L 639 153 L 641 153 L 642 152 L 643 152 L 644 151 L 645 151 L 649 155 L 649 156 L 650 157 L 650 158 L 654 162 L 657 162 L 657 149 L 658 148 L 659 148 L 660 147 L 661 147 L 662 146 L 666 146 L 667 145 L 668 145 L 669 144 L 669 143 L 670 142 L 668 140 L 666 140 L 665 139 L 663 139 L 662 138 L 661 138 L 659 136 L 658 136 L 657 135 L 657 124 L 654 124 L 646 132 L 643 132 L 642 131 L 641 131 L 640 130 L 639 130 L 637 128 L 635 128 L 634 127 Z M 373 122 L 372 123 L 372 135 L 371 136 L 369 136 L 368 137 L 366 137 L 365 138 L 363 138 L 360 141 L 363 144 L 364 144 L 365 145 L 367 145 L 368 146 L 369 146 L 370 147 L 371 147 L 372 148 L 372 149 L 373 150 L 373 159 L 374 160 L 374 161 L 376 161 L 377 160 L 377 159 L 381 155 L 381 154 L 383 152 L 387 152 L 388 153 L 391 153 L 392 154 L 397 154 L 397 151 L 394 148 L 394 147 L 392 145 L 392 144 L 391 143 L 391 142 L 390 141 L 390 140 L 392 138 L 392 137 L 395 134 L 395 133 L 397 131 L 397 129 L 396 128 L 392 128 L 391 129 L 390 129 L 389 130 L 387 130 L 386 131 L 383 131 L 380 128 L 380 127 L 375 122 Z M 610 108 L 609 108 L 607 110 L 607 111 L 605 113 L 605 114 L 604 115 L 604 116 L 603 117 L 603 118 L 602 119 L 597 119 L 596 118 L 592 118 L 591 117 L 590 117 L 589 118 L 589 120 L 590 121 L 590 123 L 596 129 L 596 131 L 594 133 L 594 134 L 592 136 L 592 137 L 591 138 L 591 139 L 590 140 L 590 141 L 589 142 L 590 143 L 590 144 L 592 144 L 593 143 L 594 143 L 595 142 L 596 142 L 597 141 L 598 141 L 599 140 L 601 140 L 602 139 L 604 139 L 611 146 L 611 147 L 612 147 L 613 148 L 615 148 L 615 140 L 614 139 L 614 135 L 617 132 L 618 132 L 619 131 L 620 131 L 621 130 L 622 130 L 623 129 L 624 129 L 626 127 L 626 125 L 625 124 L 622 124 L 621 123 L 618 123 L 617 122 L 614 122 L 613 121 L 613 120 L 612 119 L 612 113 L 611 112 L 611 111 L 610 110 Z M 420 107 L 418 109 L 418 119 L 415 122 L 413 122 L 412 123 L 409 123 L 408 124 L 407 124 L 406 125 L 406 127 L 407 127 L 410 130 L 411 130 L 412 131 L 414 131 L 415 132 L 416 132 L 417 133 L 417 145 L 418 146 L 418 148 L 419 148 L 420 147 L 421 147 L 423 145 L 423 144 L 425 142 L 425 141 L 428 138 L 430 138 L 431 139 L 433 139 L 434 140 L 436 140 L 437 141 L 438 141 L 439 142 L 442 142 L 443 141 L 443 140 L 442 139 L 442 138 L 440 136 L 440 135 L 439 134 L 439 133 L 437 131 L 437 130 L 436 129 L 436 128 L 437 127 L 437 126 L 438 125 L 438 124 L 442 120 L 442 119 L 444 117 L 443 116 L 438 116 L 437 117 L 434 117 L 433 118 L 430 118 L 426 114 L 426 113 Z M 542 109 L 542 112 L 550 120 L 550 124 L 549 125 L 549 126 L 548 127 L 548 128 L 547 129 L 547 130 L 546 131 L 546 133 L 545 134 L 546 134 L 547 135 L 548 135 L 549 134 L 551 134 L 552 133 L 553 133 L 554 132 L 555 132 L 557 130 L 559 130 L 561 132 L 562 132 L 563 133 L 563 134 L 564 135 L 565 135 L 567 137 L 568 137 L 569 138 L 571 138 L 572 137 L 572 136 L 571 135 L 571 130 L 570 129 L 570 124 L 571 123 L 572 123 L 573 122 L 574 122 L 575 121 L 576 121 L 578 119 L 579 119 L 581 117 L 581 115 L 580 114 L 576 114 L 575 113 L 569 113 L 567 111 L 567 110 L 566 109 L 566 107 L 565 106 L 565 103 L 564 102 L 564 100 L 561 100 L 560 101 L 560 102 L 559 103 L 559 104 L 558 105 L 558 106 L 557 107 L 557 108 L 556 109 L 556 110 L 555 111 L 551 111 L 550 110 L 545 110 L 544 109 Z M 468 99 L 465 102 L 465 103 L 464 104 L 464 108 L 463 109 L 463 112 L 461 114 L 451 114 L 450 115 L 449 115 L 449 116 L 450 117 L 450 118 L 451 118 L 455 122 L 456 122 L 459 125 L 459 128 L 458 129 L 458 133 L 457 134 L 457 137 L 459 139 L 462 136 L 463 136 L 469 130 L 470 130 L 471 131 L 472 131 L 473 132 L 474 132 L 476 134 L 477 134 L 478 135 L 479 135 L 481 137 L 483 137 L 483 133 L 482 132 L 482 130 L 481 129 L 481 128 L 480 127 L 480 122 L 487 115 L 488 115 L 489 114 L 489 113 L 487 111 L 481 111 L 480 112 L 475 112 L 473 110 L 473 109 L 472 108 L 472 107 L 471 106 L 471 105 L 470 104 L 470 103 L 469 102 L 469 100 Z M 513 96 L 513 97 L 512 98 L 512 99 L 511 100 L 511 102 L 510 103 L 510 105 L 509 106 L 509 108 L 507 110 L 496 110 L 495 111 L 495 112 L 500 117 L 501 117 L 504 120 L 504 123 L 503 124 L 503 126 L 502 127 L 502 130 L 501 131 L 501 134 L 505 134 L 508 131 L 509 131 L 511 129 L 512 129 L 513 128 L 516 128 L 517 129 L 518 129 L 521 132 L 522 132 L 524 134 L 525 134 L 526 135 L 527 135 L 528 134 L 528 133 L 527 132 L 527 129 L 526 128 L 526 126 L 525 125 L 525 120 L 528 117 L 529 117 L 532 114 L 533 114 L 533 113 L 534 112 L 534 109 L 525 109 L 524 110 L 522 110 L 520 108 L 520 107 L 518 105 L 518 103 L 517 102 L 517 100 L 516 99 L 516 98 L 515 98 L 514 97 L 514 96 Z M 486 69 L 400 83 L 328 109 L 249 156 L 184 218 L 133 290 L 97 375 L 81 454 L 80 535 L 96 624 L 125 697 L 169 765 L 227 825 L 292 871 L 369 907 L 454 928 L 539 932 L 624 918 L 703 889 L 770 850 L 845 783 L 896 712 L 925 649 L 947 558 L 950 481 L 940 409 L 910 322 L 861 241 L 799 175 L 737 130 L 658 93 L 582 74 Z M 500 89 L 587 96 L 670 120 L 733 152 L 802 206 L 850 261 L 894 337 L 921 419 L 930 484 L 926 563 L 906 641 L 868 718 L 821 778 L 763 829 L 683 875 L 605 901 L 525 911 L 445 905 L 371 885 L 296 849 L 219 789 L 166 725 L 131 660 L 109 592 L 99 509 L 105 431 L 130 345 L 167 275 L 218 212 L 276 163 L 346 124 L 423 99 Z" fill="url(#scw-gold-gradient)" fill-rule="evenodd"/>
</svg>

